<svg width="22" height="22" viewBox="0 0 22 22" xmlns="http://www.w3.org/2000/svg">
    <g clip-path="url(#a)">
        <path d="M12.834 8.426V6.24L11 5.171l-1.833 1.07v2.185L11 9.496l1.834-1.07zM4.767 13.941v2.185l1.833 1.07 1.833-1.07V13.94L6.6 12.871l-1.833 1.07z"/>
        <path d="M11.367 2.838V0h-.734v2.838l-3.666 2.14v4.711L11 12.042l4.034-2.353V4.977l-3.667-2.139zm2.2 6.009L11 10.344 8.433 8.847V5.82L11 4.323l2.567 1.497v3.027zM10.634 12.677L6.6 10.325l-3.62 2.112-2.43-1.389-.366.637 2.383 1.361v4.344l3.667 2.138V22h.733v-2.472l3.667-2.138v-4.713zm-1.467 3.87L6.6 18.044l-2.566-1.497V13.52L6.6 12.023l2.567 1.497v3.027zM19.434 13.046l2.383-1.36-.366-.638-2.43 1.389-3.62-2.112-4.034 2.352v4.713l3.667 2.138V22h.733v-2.472l3.667-2.138v-4.344zm-1.467 3.501l-2.566 1.497-2.567-1.497V13.52l2.566-1.497 2.567 1.497v3.027z"/>
        <path d="M13.566 13.941v2.185l1.834 1.07 1.833-1.07V13.94l-1.833-1.07-1.834 1.07z"/>
    </g>
    <defs>
        <clipPath id="a">
            <path d="M0 0h22v22H0z"/>
        </clipPath>
    </defs>
</svg>
