<svg width="16" height="16" viewBox="0 0 16 16" xmlns="http://www.w3.org/2000/svg">
    <path d="M13.77 1H8a.41.41 0 0 0-.41.41v1.72A1.642 1.642 0 0 0 5.54 4.72a1.642 1.642 0 0 0 2.05 1.588V7.59H5.635a.41.41 0 0 0-.305.684.818.818 0 0 1-.611 1.367.821.821 0 0 1-.611-1.367.41.41 0 0 0-.306-.684H1.41A.41.41 0 0 0 1 8v5.77c0 .678.552 1.23 1.23 1.23h11.54c.678 0 1.23-.552 1.23-1.23V2.23C15 1.552 14.448 1 13.77 1zM7.59 12.196v1.984H2.23a.41.41 0 0 1-.41-.41V8.407h1.31A1.642 1.642 0 0 0 4.72 10.46a1.642 1.642 0 0 0 1.588-2.05H7.59v1.955c0 .357.423.54.684.305a.818.818 0 0 1 1.367.611.821.821 0 0 1-1.366.612.41.41 0 0 0-.685.303zm6.59 1.574a.41.41 0 0 1-.41.41H8.41v-1.31a1.64 1.64 0 1 0 0-3.177V8.41h1.955a.41.41 0 0 0 .305-.684.818.818 0 0 1 .611-1.367.821.821 0 0 1 .611 1.367.41.41 0 0 0 .306.684h1.982v5.36zm0-6.18h-1.31a1.643 1.643 0 0 0-1.589-2.05 1.642 1.642 0 0 0-1.588 2.05H8.41V5.636a.41.41 0 0 0-.684-.306.819.819 0 0 1-1.367-.611.821.821 0 0 1 1.367-.612.41.41 0 0 0 .684-.305V1.82h5.36a.41.41 0 0 1 .41.41v5.36z"/>
</svg>
