<svg width="14" height="14" viewBox="0 0 14 14" xmlns="http://www.w3.org/2000/svg">
    <g clip-path="url(#a)">
        <path d="M4.728 9.746a.081.081 0 0 0-.082-.082.081.081 0 0 0-.082.082c0 .045.037.081.082.081a.081.081 0 0 0 .082-.081zM9.55 4.646h.081a.081.081 0 0 0-.082-.081.081.081 0 0 0-.081.081h.081zm0 .082a.081.081 0 0 0 .081-.082h-.163c0 .046.036.082.081.082zM10.057 9.435H8.65v.23h1.406v-.23zM4.564 4.336h-.228v.229h.228v-.229z"/>
        <path d="M1.25 2.097v4.821h1.909a.865.865 0 0 1-.36-.702V6.1h-.114a.866.866 0 0 1-.368-1.65.866.866 0 0 1 .368-1.651h.114v-.115a.866.866 0 0 1 1.651-.368.866.866 0 0 1 1.65.368V2.8h.115c.29 0 .546.142.703.36V1.25H2.096a.848.848 0 0 0-.846.847zm3.2 4.486a.87.87 0 0 1-.278.335h.556a.87.87 0 0 1-.278-.335zm1.65-.367c0 .289-.141.545-.359.702h1.063a.115.115 0 0 0 .114-.114V5.74a.865.865 0 0 1-.703.36h-.114v.115zm.483-1.766a.87.87 0 0 1 .335.279v-.557a.87.87 0 0 1-.335.278z"/>
        <mask id="b">
            <path d="M8.15 6.804V.75h3.753c.743 0 1.347.604 1.347 1.347v1.399h-1.935a.366.366 0 1 0 0 .732h1.935v.837h-1.935a.366.366 0 1 0 0 .732h1.935v.837h-1.935a.366.366 0 1 0 0 .732h1.935v4.537c0 .743-.604 1.347-1.347 1.347H7.366v-1.935a.366.366 0 1 0-.732 0v1.935h-.837v-1.935a.366.366 0 1 0-.732 0v1.935h-.837v-1.935a.366.366 0 1 0-.732 0v1.935h-1.4A1.348 1.348 0 0 1 .75 11.903V8.151h6.054c.743 0 1.347-.604 1.347-1.347zm3.298-4.252a.37.37 0 0 0 .518 0 .368.368 0 0 0 0-.518.368.368 0 0 0-.518 0 .37.37 0 0 0 0 .518zm0 9.414a.37.37 0 0 0 .518 0 .369.369 0 0 0 0-.518.37.37 0 0 0-.518 0 .37.37 0 0 0 0 .518zM9.55 3.496c-.635 0-1.151.516-1.151 1.15 0 .635.516 1.151 1.15 1.151.635 0 1.152-.516 1.152-1.15 0-.635-.517-1.151-1.151-1.151zM7.418 10.53c0 .203.164.367.367.367h3.138a.366.366 0 0 0 .366-.367V8.57a.366.366 0 0 0-.366-.366H7.785a.366.366 0 0 0-.367.366v1.961zm-4.866.918a.369.369 0 0 0-.518 0 .37.37 0 0 0 0 .518.369.369 0 0 0 .625-.259c0-.096-.039-.19-.107-.259zm2.095-2.853c-.635 0-1.151.516-1.151 1.15 0 .635.516 1.152 1.15 1.152a1.152 1.152 0 0 0 0-2.301z"/>
        </mask>
        <path d="M8.15 6.804V.75h3.753c.743 0 1.347.604 1.347 1.347v1.399h-1.935a.366.366 0 1 0 0 .732h1.935v.837h-1.935a.366.366 0 1 0 0 .732h1.935v.837h-1.935a.366.366 0 1 0 0 .732h1.935v4.537c0 .743-.604 1.347-1.347 1.347H7.366v-1.935a.366.366 0 1 0-.732 0v1.935h-.837v-1.935a.366.366 0 1 0-.732 0v1.935h-.837v-1.935a.366.366 0 1 0-.732 0v1.935h-1.4A1.348 1.348 0 0 1 .75 11.903V8.151h6.054c.743 0 1.347-.604 1.347-1.347zm3.298-4.252a.37.37 0 0 0 .518 0 .368.368 0 0 0 0-.518.368.368 0 0 0-.518 0 .37.37 0 0 0 0 .518zm0 9.414a.37.37 0 0 0 .518 0 .369.369 0 0 0 0-.518.37.37 0 0 0-.518 0 .37.37 0 0 0 0 .518zM9.55 3.496c-.635 0-1.151.516-1.151 1.15 0 .635.516 1.151 1.15 1.151.635 0 1.152-.516 1.152-1.15 0-.635-.517-1.151-1.151-1.151zM7.418 10.53c0 .203.164.367.367.367h3.138a.366.366 0 0 0 .366-.367V8.57a.366.366 0 0 0-.366-.366H7.785a.366.366 0 0 0-.367.366v1.961zm-4.866.918a.369.369 0 0 0-.518 0 .37.37 0 0 0 0 .518.369.369 0 0 0 .625-.259c0-.096-.039-.19-.107-.259zm2.095-2.853c-.635 0-1.151.516-1.151 1.15 0 .635.516 1.152 1.15 1.152a1.152 1.152 0 0 0 0-2.301z"/>
        <path d="M8.15.75h-1v-1h1v1zm5.1 2.746h1v1h-1v-1zm0 .732v-1h1v1h-1zm0 .837h1v1h-1v-1zm0 .732v-1h1v1h-1zm0 .837h1v1h-1v-1zm0 .732v-1h1v1h-1zM7.366 13.25v1h-1v-1h1zm-.732 0h1v1h-1v-1zm-.837 0v1h-1v-1h1zm-.732 0h1v1h-1v-1zm-.837 0v1h-1v-1h1zm-.732 0h1v1h-1v-1zM.75 8.15h-1v-1h1v1zm10.698-5.598l-.706.708-.002-.002.708-.706zm.518 0l-.708-.707.002-.002.706.709zm-.518-.518l-.709-.706.002-.002.707.708zm0 9.932l-.707.708-.002-.002.709-.706zm.518 0l.708.706-.002.002-.706-.708zm0-.518l.706-.708.002.001-.708.707zm-.518 0l-.709-.706.002-.002.707.708zM10.7 4.647h1-1zm-8.148 6.801l.707-.708-.707.708zm-.518 0l-.709-.706.002-.001.707.707zm0 .518l-.706.709-.003-.003.71-.706zm.518 0l.707.707-.707-.707zM7.15 6.804V.75h2v6.054h-2zm1-7.054h3.752v2H8.151v-2zm3.752 0a2.348 2.348 0 0 1 2.347 2.347h-2a.348.348 0 0 0-.347-.347v-2zm2.347 2.347v1.399h-2v-1.4h2zm-1 2.399h-1.935v-2h1.935v2zm-1.935 0c.35 0 .634-.284.634-.634h-2c0-.755.611-1.366 1.366-1.366v2zm.634-.634a.634.634 0 0 0-.634-.634v2a1.366 1.366 0 0 1-1.366-1.366h2zm-.634-.634h1.935v2h-1.935v-2zm2.935 1v.837h-2v-.837h2zm-1 1.837h-1.935v-2h1.935v2zm-1.935 0c.35 0 .634-.284.634-.634h-2c0-.755.611-1.366 1.366-1.366v2zm.634-.634a.634.634 0 0 0-.634-.634v2a1.366 1.366 0 0 1-1.366-1.366h2zm-.634-.634h1.935v2h-1.935v-2zm2.935 1v.837h-2v-.837h2zm-1 1.837h-1.935v-2h1.935v2zm-1.935 0c.35 0 .634-.284.634-.634h-2c0-.755.611-1.366 1.366-1.366v2zM11.949 7a.634.634 0 0 0-.634-.634v2A1.366 1.366 0 0 1 9.949 7h2zm-.634-.634h1.935v2h-1.935v-2zm2.935 1v4.537h-2V7.366h2zm0 4.537a2.348 2.348 0 0 1-2.347 2.347v-2c.19 0 .347-.156.347-.347h2zm-2.347 2.347H7.366v-2h4.537v2zm-5.537-1v-1.935h2v1.935h-2zm0-1.935c0 .35.284.634.634.634v-2c.755 0 1.366.611 1.366 1.366h-2zm.634.634c.35 0 .634-.284.634-.634h-2c0-.755.611-1.366 1.366-1.366v2zm.634-.634v1.935h-2v-1.935h2zm-1 2.935h-.837v-2h.837v2zm-1.837-1v-1.935h2v1.935h-2zm0-1.935c0 .35.284.634.634.634v-2c.755 0 1.366.611 1.366 1.366h-2zm.634.634c.35 0 .634-.284.634-.634h-2c0-.755.611-1.366 1.366-1.366v2zm.634-.634v1.935h-2v-1.935h2zm-1 2.935h-.837v-2h.837v2zm-1.837-1v-1.935h2v1.935h-2zm0-1.935c0 .35.284.634.634.634v-2c.755 0 1.366.611 1.366 1.366h-2zm.634.634c.35 0 .634-.284.634-.634h-2c0-.755.612-1.366 1.366-1.366v2zm.634-.634v1.935h-2v-1.935h2zm-1 2.935h-1.4v-2h1.4v2zm-1.4 0A2.348 2.348 0 0 1-.25 11.903h2c0 .19.156.347.347.347v2zM-.25 11.903V8.151h2v3.752h-2zm1-4.752h6.054v2H.75v-2zm6.054 0c.19 0 .347-.157.347-.347h2A2.348 2.348 0 0 1 6.804 9.15v-2zm5.35-5.307a.631.631 0 0 0-.447-.185v2a1.37 1.37 0 0 1-.965-.399l1.412-1.416zm-.447-.185a.632.632 0 0 0-.449.186l1.416 1.414c-.256.256-.605.4-.967.4v-2zm-.447.184a.632.632 0 0 0-.187.45h2c0 .362-.144.711-.402.968l-1.41-1.418zm-.187.45c0 .17.067.33.186.448l1.414-1.414c.255.255.4.603.4.966h-2zm.186.448c.119.12.279.186.448.186v-2c.362 0 .71.144.966.4L11.259 2.74zm.448.186a.63.63 0 0 0 .448-.185L10.74 1.326c.256-.255.605-.4.966-.4v2zm.45-.187a.63.63 0 0 0 .184-.447h-2c0-.362.144-.71.398-.965l1.418 1.412zm.184-.447a.63.63 0 0 0-.185-.447L10.74 3.258a1.37 1.37 0 0 1-.4-.965h2zm-.186 8.965a.63.63 0 0 0-.448-.185v2c-.361 0-.71-.144-.966-.4l1.414-1.415zm-.448-.185a.63.63 0 0 0-.447.185l1.412 1.416a1.37 1.37 0 0 1-.965.4v-2zm-.449.187a.63.63 0 0 0-.185.447h2c0 .362-.145.71-.399.965l-1.416-1.412zm-.185.447c0 .17.067.329.185.448l1.416-1.414c.255.256.4.604.4.966h-2zm.187.45a.63.63 0 0 0 .447.184v-2c.362 0 .71.144.965.399l-1.412 1.416zm.447.184a.63.63 0 0 0 .448-.185L10.74 10.74c.256-.255.605-.4.966-.4v2zm.45-.187a.63.63 0 0 0 .184-.447h-2c0-.362.144-.71.398-.965l1.418 1.412zm.184-.447a.63.63 0 0 0-.184-.447l-1.418 1.412a1.37 1.37 0 0 1-.398-.965h2zM9.55 4.496a.152.152 0 0 0-.15.15H7.398c0-1.186.964-2.15 2.15-2.15v2zm-.15.15c0 .083.068.151.15.151v2a2.152 2.152 0 0 1-2.151-2.15h2zm.15.151c.082 0 .15-.068.15-.15h2c0 1.186-.963 2.15-2.15 2.15v-2zm.15-.15a.152.152 0 0 0-.15-.151v-2c1.187 0 2.15.964 2.15 2.15h-2zM8.418 10.53a.634.634 0 0 0-.633-.633v2a1.366 1.366 0 0 1-1.367-1.367h2zm-.633-.633h3.138v2H7.785v-2zm3.138 0a.634.634 0 0 0-.634.633h2c0 .755-.612 1.367-1.366 1.367v-2zm-.634.633V8.57h2v1.961h-2zm0-1.961c0 .35.283.634.634.634v-2c.754 0 1.366.612 1.366 1.366h-2zm.634.634H7.785v-2h3.138v2zm-3.138 0c.35 0 .633-.284.633-.634h-2c0-.754.612-1.366 1.367-1.366v2zm.633-.634v1.961h-2V8.57h2zm-6.573 3.587a.631.631 0 0 0 .448.185v-2c.362 0 .71.145.966.4l-1.414 1.415zm.448.185a.631.631 0 0 0 .448-.186l-1.414-1.414c.256-.256.605-.4.966-.4v2zm.45-.187a.63.63 0 0 0 .184-.447h-2c0-.362.145-.71.398-.965l1.418 1.412zm.184-.447a.63.63 0 0 0-.184-.447l-1.418 1.412a1.37 1.37 0 0 1-.398-.965h2zm-.187-.45a.63.63 0 0 0-.447-.184v2a1.37 1.37 0 0 1-.965-.398l1.412-1.418zm-.447-.184a.631.631 0 0 0-.448.185l1.414 1.416c-.256.255-.604.4-.966.4v-2zm-.448.186a.632.632 0 0 0-.186.448h2c0 .362-.144.71-.4.966L1.845 11.26zm-.186.448c0 .17.067.33.186.448l1.414-1.414c.256.255.4.604.4.966h-2zm2.988-2.112a.152.152 0 0 0-.151.15h-2c0-1.186.964-2.15 2.15-2.15v2zm-.151.15c0 .083.068.152.15.152v2a2.152 2.152 0 0 1-2.15-2.151h2zm.15.152c.083 0 .151-.069.151-.151h2c0 1.187-.964 2.15-2.15 2.15v-2zm.151-.151a.152.152 0 0 0-.15-.151v-2c1.186 0 2.15.964 2.15 2.15h-2z" mask="url(#b)"/>
    </g>
    <defs>
        <clipPath id="a">
            <path transform="matrix(-1 0 0 1 13.25 .75)" d="M0 0h12.5v12.5H0z"/>
        </clipPath>
    </defs>
</svg>
