<svg width="17" height="17" viewBox="0 0 17 17" xmlns="http://www.w3.org/2000/svg">
    <g clip-path="url(#a)">
        <path d="M7.58 11.336a2.106 2.106 0 0 0-.04-.249c-.006-.03-.014-.058-.022-.087a1.65 1.65 0 0 0-.051-.17l-.034-.09a2.076 2.076 0 0 0-.104-.223c-.014-.026-.03-.05-.046-.075a2.503 2.503 0 0 0-.153-.223 2.015 2.015 0 0 0-.102-.117c-.02-.023-.04-.047-.062-.07a2.188 2.188 0 0 0-.171-.15c-.024-.02-.048-.037-.073-.055a1.818 1.818 0 0 0-.14-.096l-.07-.042a2.15 2.15 0 0 0-.462-.195l-.063-.016a1.85 1.85 0 0 0-.195-.04l-.068-.01a2.11 2.11 0 0 0-.793.05 2.125 2.125 0 0 0 .25 4.163l.036.004c.072.008.144.013.215.014h.064a1.68 1.68 0 0 0 .26-.022c.014-.001.028-.004.041-.006.191-.031.377-.087.554-.167l.025-.013a2.13 2.13 0 0 0 1.206-1.763l.003-.075c.003-.07.002-.14-.002-.21l-.004-.067z"/>
        <path d="M10.625 12.446a.304.304 0 0 0 .304-.303v-1.214a.304.304 0 0 0-.304-.304h-.334a.913.913 0 0 1-.85-.588 4.394 4.394 0 0 0-.104-.25.914.914 0 0 1 .182-1.019l.238-.238a.304.304 0 0 0 0-.43l-.858-.857a.305.305 0 0 0-.43 0l-.238.237a.913.913 0 0 1-1.019.183 4.457 4.457 0 0 0-.25-.105.914.914 0 0 1-.587-.849v-.334a.304.304 0 0 0-.304-.304H4.857a.304.304 0 0 0-.303.304v.334a.913.913 0 0 1-.588.85 4.401 4.401 0 0 0-.25.104.912.912 0 0 1-1.02-.182l-.237-.238a.304.304 0 0 0-.43 0l-.858.858a.304.304 0 0 0 0 .43l.238.237c.266.27.338.674.182 1.019a4.496 4.496 0 0 0-.104.25.914.914 0 0 1-.85.588H.305a.304.304 0 0 0-.304.304v1.214c0 .167.136.303.304.303h.334a.913.913 0 0 1 .85.588c.032.084.067.168.104.25a.913.913 0 0 1-.182 1.02l-.238.237a.304.304 0 0 0 0 .43l.858.858a.304.304 0 0 0 .43 0l.237-.238a.914.914 0 0 1 1.02-.182c.081.037.165.072.25.104a.914.914 0 0 1 .587.85v.333c0 .168.135.304.303.304h1.214a.304.304 0 0 0 .304-.304v-.334a.913.913 0 0 1 .588-.85c.084-.032.168-.067.25-.104a.913.913 0 0 1 1.019.182l.238.238c.118.118.31.118.43 0l.857-.858a.304.304 0 0 0 0-.43l-.237-.237a.914.914 0 0 1-.183-1.02c.038-.081.073-.165.105-.25a.914.914 0 0 1 .849-.587h.334zm-2.43-.86c0 .055-.005.11-.01.165-.004.06-.012.118-.02.177a3.24 3.24 0 0 1-.457 1.247.958.958 0 0 1-.163.2c-.233.22-.495.41-.778.561h-.002c-.051.027-.102.05-.152.074-.039.018-.078.037-.118.053-.04.017-.085.03-.128.047a2.123 2.123 0 0 1-.287.084l-.087.02a2.682 2.682 0 0 1-.225.034c-.01 0-.02.003-.03.004a2.761 2.761 0 0 1-.268.015c-.05 0-.093-.007-.14-.01-.072-.003-.143-.005-.213-.013a2.914 2.914 0 0 1-.318-.061c-.006 0-.01-.002-.016-.003a2.734 2.734 0 0 1-.002-5.294 2.785 2.785 0 0 1 .593-.08c.03 0 .06-.005.09-.005.588 0 1.159.19 1.628.543l.05.037a3.403 3.403 0 0 1 .203.175c.025.024.05.047.074.072.045.046.088.094.13.143a2.694 2.694 0 0 1 .301.43l.01.021c.05.093.096.187.135.285.017.041.03.083.046.125.021.061.04.123.057.185.013.05.027.098.038.148a2.625 2.625 0 0 1 .054.448c.002.04.006.08.006.121l-.002.053zM13.06 6.09c.013.03.022.061.033.09-.01-.03-.02-.06-.033-.09zM13.093 9c-.01.03-.02.06-.033.088.013-.03.022-.06.033-.089zM12.895 5.738c.02.039.038.08.058.12-.02-.042-.038-.082-.058-.12zM13.203 8.673l-.013.047.013-.047zM10.494 3.797c.015.005.03.008.047.012l-.047-.012zM7.912 3.94c.03-.013.06-.022.09-.033-.03.01-.06.02-.09.032zM13.19 6.46c.005.014.008.03.013.046l-.013-.047zM11.144 4.048c.04.02.08.037.121.058-.04-.021-.081-.038-.121-.058zM11.464 4.223l.136.083c-.045-.03-.09-.056-.136-.083zM11.79 4.446c.04.03.082.059.121.091-.039-.032-.08-.06-.121-.09zM12.463 5.088l.09.122c-.03-.04-.058-.082-.09-.122zM10.82 3.907c.03.01.061.02.09.032-.03-.012-.06-.021-.09-.032zM12.694 5.4c.03.045.055.092.083.136-.027-.045-.053-.09-.083-.135zM8.28 3.81l.047-.013-.047.012zM6.91 4.537c.04-.032.081-.06.122-.091-.04.03-.082.059-.122.09zM12.554 9.969c-.03.04-.059.082-.091.121.033-.04.06-.08.09-.121zM7.223 4.306c.043-.03.09-.055.135-.082-.045.026-.091.052-.135.082zM7.559 4.106c.039-.021.08-.038.121-.058-.043.02-.083.037-.121.058zM12.953 9.322l-.058.122c.02-.04.037-.082.058-.122zM12.776 9.643c-.027.045-.053.09-.082.135.03-.045.056-.09.082-.135z"/>
        <path d="M16.697 6.375h-.955a.903.903 0 0 1-.859-.614 5.742 5.742 0 0 0-.31-.744.904.904 0 0 1 .172-1.043l.677-.678a.303.303 0 0 0 0-.429L14.133 1.58a.304.304 0 0 0-.429 0l-.678.677a.905.905 0 0 1-1.043.171c-.24-.12-.489-.224-.744-.31a.903.903 0 0 1-.614-.859V.304A.304.304 0 0 0 10.322 0H8.5a.304.304 0 0 0-.303.304v.954a.903.903 0 0 1-.614.86 5.73 5.73 0 0 0-.744.308.903.903 0 0 1-1.043-.17l-.678-.677a.303.303 0 0 0-.43 0L3.4 2.867a.303.303 0 0 0 0 .43l2.166 2.167h.522a3.952 3.952 0 0 1 .822-.93c.04-.032.081-.06.122-.09.063-.049.125-.097.191-.141.044-.03.091-.055.135-.082.066-.04.131-.082.2-.118.04-.021.08-.038.122-.058.077-.038.154-.076.234-.109.03-.012.06-.021.089-.032.091-.036.184-.07.28-.098l.046-.012a3.886 3.886 0 0 1 2.167 0l.047.012c.095.028.188.062.28.098.03.01.06.02.089.032.08.033.157.07.234.109.04.02.08.037.121.058.069.036.134.077.2.118.045.027.09.052.135.082.066.044.128.09.191.14.04.03.082.059.122.091.201.165.386.35.551.552.032.04.061.08.091.121.048.063.097.125.14.191.03.045.055.091.083.136.04.066.081.13.118.2.02.039.038.08.058.12.037.078.075.155.108.235.012.03.021.06.033.089.035.091.069.185.097.28.005.015.008.03.012.046.206.708.206 1.46 0 2.168l-.012.046c-.028.095-.06.188-.097.28-.011.03-.02.06-.033.089-.033.08-.07.157-.108.234-.02.04-.037.08-.058.121-.037.069-.078.134-.118.2-.028.045-.053.091-.082.135a3.127 3.127 0 0 1-.141.192c-.03.04-.058.081-.091.121a3.864 3.864 0 0 1-.93.822l.002.017v.505l2.166 2.166c.119.118.31.118.43 0l1.288-1.288a.303.303 0 0 0 0-.43l-.677-.678a.904.904 0 0 1-.172-1.043c.121-.24.224-.489.31-.744a.903.903 0 0 1 .86-.613h.954A.304.304 0 0 0 17 8.5V6.679a.304.304 0 0 0-.303-.304z"/>
        <path d="M10.91 3.94c.079.032.156.07.233.108a3.821 3.821 0 0 0-.234-.109zM11.264 4.106c.068.036.133.077.2.118-.067-.04-.132-.082-.2-.118zM8.001 3.907zM10.541 3.81zM7.357 4.224c.067-.04.132-.082.2-.118-.068.036-.133.077-.2.118zM7.031 4.446c.063-.048.126-.096.191-.14-.065.044-.128.092-.19.14zM7.678 4.048a3.845 3.845 0 0 0 0 0zM6.62 4.799zM12.694 9.778a3.179 3.179 0 0 1-.14.19c.048-.062.096-.124.14-.19zM13.06 9.088c-.032.08-.07.157-.108.234.038-.077.076-.154.108-.234zM12.895 9.441c-.037.068-.078.134-.119.2.04-.065.082-.13.119-.2zM11.6 4.306a3.3 3.3 0 0 1 .19.14c-.062-.048-.125-.096-.19-.14zM13.203 8.673a3.885 3.885 0 0 0 0-2.168c.2.709.2 1.46 0 2.168zM10.495 3.797a3.885 3.885 0 0 0-2.168 0c.709-.2 1.459-.2 2.168 0zM12.463 10.09zM12.201 4.799zM12.554 5.21c.047.063.096.126.14.19-.044-.065-.093-.127-.14-.19zM11.911 4.537zM13.094 6.18zM12.776 5.537c.04.065.082.131.118.199-.036-.069-.077-.134-.118-.2zM13.191 8.72zM12.952 5.856c.038.078.076.155.108.234a3.842 3.842 0 0 0-.108-.234z"/>
    </g>
    <defs>
        <clipPath id="a">
            <path d="M0 0h17v17H0z"/>
        </clipPath>
    </defs>
</svg>
