<svg width="18" height="18" viewBox="0 0 18 18" xmlns="http://www.w3.org/2000/svg">
    <path d="M6.469 11.813h.562V13.5H6.47v-1.688zM13.368 4.234a6.444 6.444 0 0 0-4.087-1.696V3.67a5.315 5.315 0 0 1 3.288 1.363l.8-.8zM7.594 11.813h.562V13.5h-.562v-1.688zM9.446 10.125l.368-.368L9 6.503l-.813 3.254.367.368h.892zM8.719 3.67V2.538c-1.572.068-3 .698-4.087 1.696l.799.799A5.315 5.315 0 0 1 8.719 3.67zM5.032 5.43l-.798-.798a6.444 6.444 0 0 0-1.696 4.087h1.125a5.32 5.32 0 0 1 1.369-3.29zM8.719 11.813h.562V13.5H8.72v-1.688z"/>
    <path d="M13.781 9A4.787 4.787 0 0 0 9 4.219 4.787 4.787 0 0 0 4.219 9a.281.281 0 0 1-.282.281H2.538A6.476 6.476 0 0 0 9 15.47 6.476 6.476 0 0 0 15.46 9.28h-1.399a.281.281 0 0 1-.28-.281zm-6.179.776l1.125-4.5a.281.281 0 0 1 .546 0l1.125 4.5a.281.281 0 0 1-.074.267l-.563.562a.28.28 0 0 1-.199.082H8.437a.28.28 0 0 1-.199-.082l-.562-.562a.28.28 0 0 1-.074-.267zm4.492 4.005a.281.281 0 0 1-.282.281H6.187a.281.281 0 0 1-.281-.28v-2.25c0-.156.126-.282.281-.282h5.625c.156 0 .282.126.282.281v2.25z"/>
    <path d="M9.844 11.813h.562V13.5h-.562v-1.688z"/>
    <path d="M9 .844C4.503.844.844 4.503.844 9c0 4.497 3.659 8.156 8.156 8.156 4.498 0 8.156-3.659 8.156-8.156C17.156 4.503 13.498.844 9 .844zM9 16.03A7.04 7.04 0 0 1 1.969 9 7.04 7.04 0 0 1 9 1.969 7.04 7.04 0 0 1 16.031 9 7.04 7.04 0 0 1 9 16.031z"/>
    <path d="M14.336 8.719h1.125a6.443 6.443 0 0 0-1.695-4.087l-.798.798a5.32 5.32 0 0 1 1.368 3.289zM10.969 11.813h.562V13.5h-.562v-1.688z"/>
</svg>
